<svg viewBox="0 0 1200 820" xmlns="http://www.w3.org/2000/svg">
    <defs>
        <linearGradient id="btn" x1="0" y1="0" x2="0" y2="1">
            <stop offset="0%" stop-color="#EEF3F9"/>
            <stop offset="45%" stop-color="#D8E2EE"/>
            <stop offset="55%" stop-color="#C0D0E2"/>
            <stop offset="100%" stop-color="#CCDAEA"/>
        </linearGradient>
        <linearGradient id="btnPri" x1="0" y1="0" x2="0" y2="1">
            <stop offset="0%" stop-color="#C0D8F0"/>
            <stop offset="45%" stop-color="#7AACE0"/>
            <stop offset="55%" stop-color="#5090D0"/>
            <stop offset="100%" stop-color="#68A4DD"/>
        </linearGradient>
        <linearGradient id="btnOk" x1="0" y1="0" x2="0" y2="1">
            <stop offset="0%" stop-color="#C0E8C0"/>
            <stop offset="45%" stop-color="#70C870"/>
            <stop offset="55%" stop-color="#48A848"/>
            <stop offset="100%" stop-color="#5CB85C"/>
        </linearGradient>
        <linearGradient id="lunaField" x1="0" y1="0" x2="0" y2="1">
            <stop offset="0%" stop-color="#E0DCD6"/>
            <stop offset="3%" stop-color="#fff"/>
            <stop offset="100%" stop-color="#fff"/>
        </linearGradient>
        <linearGradient id="tabActive" x1="0" y1="0" x2="0" y2="1">
            <stop offset="0%" stop-color="#F8F6F2"/>
            <stop offset="100%" stop-color="#ECEAE4"/>
        </linearGradient>
        <filter id="shSm" x="-2%" y="-3%" width="106%" height="112%">
            <feDropShadow dx="0" dy="1" stdDeviation="1.5" flood-color="rgba(0,0,0,0.12)"/>
        </filter>
    </defs>
    <style>
        text { font-family: 'Segoe UI', Tahoma, sans-serif; }
        .mono { font-family: Consolas, 'Courier New', monospace; }
    </style>

    <!-- ══ VS CODE SHELL ══ -->
    <rect width="1200" height="820" fill="#1E1E1E"/>

    <!-- Title Bar -->
    <rect width="1200" height="30" fill="#323233"/>
    <text x="12" y="20" font-size="11" fill="#CCCCCC">📐 order-form.wysiwyg — jsgui3-html — Visual Studio Code</text>
    <rect x="1172" y="8" width="26" height="14" rx="1" fill="#E81123"/>
    <line x1="1179" y1="10" x2="1191" y2="20" stroke="#fff" stroke-width="1.2"/>
    <line x1="1191" y1="10" x2="1179" y2="20" stroke="#fff" stroke-width="1.2"/>

    <!-- Menu Bar -->
    <rect y="30" width="1200" height="24" fill="#3C3C3C"/>
    <text x="12" y="46" font-size="11" fill="#CCCCCC">File</text>
    <text x="46" y="46" font-size="11" fill="#CCCCCC">Edit</text>
    <text x="82" y="46" font-size="11" fill="#CCCCCC">Selection</text>
    <text x="148" y="46" font-size="11" fill="#CCCCCC">View</text>
    <text x="186" y="46" font-size="11" fill="#CCCCCC">Go</text>
    <text x="212" y="46" font-size="11" fill="#CCCCCC">Run</text>
    <text x="244" y="46" font-size="11" fill="#CCCCCC">Terminal</text>
    <text x="306" y="46" font-size="11" fill="#CCCCCC">Help</text>

    <!-- Activity Bar -->
    <rect y="54" width="48" height="740" fill="#333333"/>
    <rect x="0" y="54" width="48" height="48" fill="#1E1E1E"/>
    <rect x="0" y="54" width="2" height="48" fill="#fff"/>
    <text x="16" y="84" font-size="18">📁</text>
    <text x="16" y="128" font-size="18" fill="#888">🔍</text>
    <text x="16" y="172" font-size="18" fill="#888">⑃</text>
    <text x="16" y="216" font-size="18" fill="#888">⧉</text>

    <!-- Explorer Sidebar (narrower) -->
    <rect x="48" y="54" width="180" height="740" fill="#252526"/>
    <text x="58" y="72" font-size="10" font-weight="600" fill="#BBB" letter-spacing="0.8">EXPLORER</text>
    <text x="58" y="94" font-size="10" font-weight="600" fill="#CCC">▾ JSGUI3-HTML</text>
    <text x="70" y="112" font-size="10" fill="#CCC">▾ dev-examples</text>
    <text x="82" y="128" font-size="10" fill="#CCC">▾ wysiwyg-form-builder</text>
    <rect x="48" y="133" width="180" height="18" fill="#37373D"/>
    <text x="94" y="146" font-size="10" fill="#fff">📐 order-form.wysiwyg</text>
    <text x="94" y="164" font-size="10" fill="#888">login-form.wysiwyg</text>
    <text x="94" y="182" font-size="10" fill="#888">settings-page.wysiwyg</text>
    <text x="94" y="200" font-size="10" fill="#888">server.js</text>
    <text x="70" y="220" font-size="10" fill="#CCC">▸ controls</text>
    <text x="70" y="238" font-size="10" fill="#CCC">▸ lab</text>
    <text x="58" y="256" font-size="10" fill="#888">package.json</text>

    <!-- Tab Bar -->
    <rect x="228" y="54" width="972" height="34" fill="#252526"/>
    <!-- Active tab -->
    <rect x="228" y="54" width="190" height="34" fill="#1E1E1E"/>
    <rect x="228" y="54" width="190" height="1" fill="#0078D4"/>
    <text x="244" y="76" font-size="11" fill="#fff">📐 order-form.wysiwyg</text>
    <text x="408" y="76" font-size="11" fill="#888">×</text>
    <!-- Code tab -->
    <rect x="418" y="54" width="150" height="34" fill="#2D2D2D"/>
    <text x="434" y="76" font-size="11" fill="#888">login-form.wysiwyg</text>

    <!-- Breadcrumbs -->
    <rect x="228" y="88" width="972" height="22" fill="#1E1E1E"/>
    <text x="240" y="103" font-size="10" fill="#888">jsgui3-html</text>
    <text x="304" y="103" font-size="10" fill="#555">›</text>
    <text x="316" y="103" font-size="10" fill="#888">dev-examples</text>
    <text x="396" y="103" font-size="10" fill="#555">›</text>
    <text x="408" y="103" font-size="10" fill="#888">wysiwyg-form-builder</text>
    <text x="530" y="103" font-size="10" fill="#555">›</text>
    <text x="542" y="103" font-size="10" fill="#CCC">order-form.wysiwyg</text>

    <!-- ══════════════════════════════════════ -->
    <!-- SPLIT VIEW: Code (left) + Preview (right) -->
    <!-- ══════════════════════════════════════ -->

    <!-- ── LEFT: CODE EDITOR (dark, JSON-like notation) ── -->
    <rect x="228" y="110" width="420" height="640" fill="#1E1E1E"/>

    <!-- Mini-tab bar: Source / Schema -->
    <rect x="228" y="110" width="420" height="26" fill="#2D2D2D"/>
    <rect x="228" y="110" width="80" height="26" fill="#1E1E1E"/>
    <rect x="228" y="110" width="80" height="1" fill="#0078D4"/>
    <text x="248" y="127" font-size="10" fill="#fff">Source</text>
    <text x="328" y="127" font-size="10" fill="#888">Schema</text>
    <text x="398" y="127" font-size="10" fill="#888">Events</text>

    <!-- Line numbers + code -->
    <g font-size="11" class="mono">
        <!-- gutter -->
        <rect x="228" y="136" width="38" height="614" fill="#1E1E1E"/>
        <text x="260" y="156" fill="#5A5A5A" text-anchor="end">1</text>
        <text x="260" y="174" fill="#5A5A5A" text-anchor="end">2</text>
        <text x="260" y="192" fill="#5A5A5A" text-anchor="end">3</text>
        <text x="260" y="210" fill="#5A5A5A" text-anchor="end">4</text>
        <text x="260" y="228" fill="#5A5A5A" text-anchor="end">5</text>
        <text x="260" y="246" fill="#5A5A5A" text-anchor="end">6</text>
        <text x="260" y="264" fill="#5A5A5A" text-anchor="end">7</text>
        <text x="260" y="282" fill="#5A5A5A" text-anchor="end">8</text>
        <text x="260" y="300" fill="#5A5A5A" text-anchor="end">9</text>
        <text x="260" y="318" fill="#5A5A5A" text-anchor="end">10</text>
        <text x="260" y="336" fill="#5A5A5A" text-anchor="end">11</text>
        <text x="260" y="354" fill="#5A5A5A" text-anchor="end">12</text>
        <text x="260" y="372" fill="#5A5A5A" text-anchor="end">13</text>
        <text x="260" y="390" fill="#5A5A5A" text-anchor="end">14</text>
        <text x="260" y="408" fill="#5A5A5A" text-anchor="end">15</text>
        <text x="260" y="426" fill="#5A5A5A" text-anchor="end">16</text>
        <text x="260" y="444" fill="#5A5A5A" text-anchor="end">17</text>
        <text x="260" y="462" fill="#5A5A5A" text-anchor="end">18</text>
        <text x="260" y="480" fill="#5A5A5A" text-anchor="end">19</text>
        <text x="260" y="498" fill="#5A5A5A" text-anchor="end">20</text>
        <text x="260" y="516" fill="#5A5A5A" text-anchor="end">21</text>
        <text x="260" y="534" fill="#5A5A5A" text-anchor="end">22</text>
        <text x="260" y="552" fill="#5A5A5A" text-anchor="end">23</text>
        <text x="260" y="570" fill="#5A5A5A" text-anchor="end">24</text>
        <text x="260" y="588" fill="#5A5A5A" text-anchor="end">25</text>
        <text x="260" y="606" fill="#5A5A5A" text-anchor="end">26</text>
        <text x="260" y="624" fill="#5A5A5A" text-anchor="end">27</text>
        <text x="260" y="642" fill="#5A5A5A" text-anchor="end">28</text>
        <text x="260" y="660" fill="#5A5A5A" text-anchor="end">29</text>
        <text x="260" y="678" fill="#5A5A5A" text-anchor="end">30</text>
        <text x="260" y="696" fill="#5A5A5A" text-anchor="end">31</text>
        <text x="260" y="714" fill="#5A5A5A" text-anchor="end">32</text>
        <text x="260" y="732" fill="#5A5A5A" text-anchor="end">33</text>

        <!-- Actual code content -->
        <text x="270" y="156" fill="#D4D4D4">{</text>
        <text x="270" y="174" fill="#9CDCFE">  "form"</text><text x="330" y="174" fill="#D4D4D4">: {</text>
        <text x="270" y="192" fill="#9CDCFE">    "title"</text><text x="342" y="192" fill="#D4D4D4">:</text><text x="354" y="192" fill="#CE9178"> "Order Form"</text><text x="462" y="192" fill="#D4D4D4">,</text>
        <text x="270" y="210" fill="#9CDCFE">    "layout"</text><text x="350" y="210" fill="#D4D4D4">:</text><text x="362" y="210" fill="#CE9178"> "vertical"</text><text x="438" y="210" fill="#D4D4D4">,</text>
        <text x="270" y="228" fill="#9CDCFE">    "padding"</text><text x="356" y="228" fill="#D4D4D4">:</text><text x="368" y="228" fill="#B5CEA8"> 16</text><text x="386" y="228" fill="#D4D4D4">,</text>
        <text x="270" y="246" fill="#9CDCFE">    "controls"</text><text x="362" y="246" fill="#D4D4D4">: [</text>
        <text x="270" y="264" fill="#D4D4D4">      {</text>
        <text x="270" y="282" fill="#9CDCFE">        "type"</text><text x="342" y="282" fill="#D4D4D4">:</text><text x="354" y="282" fill="#CE9178"> "group"</text><text x="414" y="282" fill="#D4D4D4">,</text>
        <text x="270" y="300" fill="#9CDCFE">        "label"</text><text x="348" y="300" fill="#D4D4D4">:</text><text x="360" y="300" fill="#CE9178"> "Customer"</text><text x="438" y="300" fill="#D4D4D4">,</text>
        <text x="270" y="318" fill="#9CDCFE">        "cols"</text><text x="336" y="318" fill="#D4D4D4">:</text><text x="348" y="318" fill="#B5CEA8"> 2</text><text x="360" y="318" fill="#D4D4D4">,</text>
        <text x="270" y="336" fill="#9CDCFE">        "children"</text><text x="366" y="336" fill="#D4D4D4">: [</text>
        <text x="270" y="354" fill="#D4D4D4">          {</text>
        <!-- Highlighted line (cursor here) -->
        <rect x="266" y="360" width="382" height="18" fill="#264F78" opacity="0.4"/>
        <text x="270" y="372" fill="#9CDCFE">            "type"</text><text x="354" y="372" fill="#D4D4D4">:</text><text x="366" y="372" fill="#CE9178"> "text"</text><text x="408" y="372" fill="#D4D4D4">,</text>
        <text x="270" y="390" fill="#9CDCFE">            "name"</text><text x="354" y="390" fill="#D4D4D4">:</text><text x="366" y="390" fill="#CE9178"> "cust_name"</text><text x="462" y="390" fill="#D4D4D4">,</text>
        <text x="270" y="408" fill="#9CDCFE">            "label"</text><text x="360" y="408" fill="#D4D4D4">:</text><text x="372" y="408" fill="#CE9178"> "Full Name"</text><text x="462" y="408" fill="#D4D4D4">,</text>
        <text x="270" y="426" fill="#9CDCFE">            "required"</text><text x="378" y="426" fill="#D4D4D4">:</text><text x="390" y="426" fill="#569CD6"> true</text>
        <text x="270" y="444" fill="#D4D4D4">          },</text>
        <text x="270" y="462" fill="#D4D4D4">          {</text>
        <text x="270" y="480" fill="#9CDCFE">            "type"</text><text x="354" y="480" fill="#D4D4D4">:</text><text x="366" y="480" fill="#CE9178"> "text"</text><text x="408" y="480" fill="#D4D4D4">,</text>
        <text x="270" y="498" fill="#9CDCFE">            "name"</text><text x="354" y="498" fill="#D4D4D4">:</text><text x="366" y="498" fill="#CE9178"> "cust_email"</text><text x="468" y="498" fill="#D4D4D4">,</text>
        <text x="270" y="516" fill="#9CDCFE">            "label"</text><text x="360" y="516" fill="#D4D4D4">:</text><text x="372" y="516" fill="#CE9178"> "Email"</text>
        <text x="270" y="534" fill="#D4D4D4">          },</text>
        <text x="270" y="552" fill="#D4D4D4">          {</text>
        <text x="270" y="570" fill="#9CDCFE">            "type"</text><text x="354" y="570" fill="#D4D4D4">:</text><text x="366" y="570" fill="#CE9178"> "combo"</text><text x="420" y="570" fill="#D4D4D4">,</text>
        <text x="270" y="588" fill="#9CDCFE">            "name"</text><text x="354" y="588" fill="#D4D4D4">:</text><text x="366" y="588" fill="#CE9178"> "cust_type"</text><text x="456" y="588" fill="#D4D4D4">,</text>
        <text x="270" y="606" fill="#9CDCFE">            "label"</text><text x="360" y="606" fill="#D4D4D4">:</text><text x="372" y="606" fill="#CE9178"> "Type"</text><text x="414" y="606" fill="#D4D4D4">,</text>
        <text x="270" y="624" fill="#9CDCFE">            "items"</text><text x="354" y="624" fill="#D4D4D4">: [</text>
        <text x="270" y="642" fill="#CE9178">              "Business"</text><text x="402" y="642" fill="#D4D4D4">,</text>
        <text x="270" y="660" fill="#CE9178">              "Individual"</text>
        <text x="270" y="678" fill="#D4D4D4">            ]</text>
        <text x="270" y="696" fill="#D4D4D4">          }</text>
        <text x="270" y="714" fill="#D4D4D4">        ]</text>
        <text x="270" y="732" fill="#D4D4D4">      },</text>
    </g>

    <!-- Minimap (right edge of code pane) -->
    <rect x="628" y="136" width="20" height="614" fill="#1E1E1E"/>
    <rect x="630" y="140" width="16" height="120" fill="rgba(90,90,90,0.3)" rx="1"/>
    <rect x="632" y="142" width="8" height="2" fill="rgba(150,150,150,0.3)"/>
    <rect x="632" y="148" width="12" height="2" fill="rgba(150,150,150,0.3)"/>
    <rect x="632" y="154" width="10" height="2" fill="rgba(150,150,150,0.3)"/>
    <rect x="632" y="160" width="14" height="2" fill="rgba(150,150,150,0.3)"/>
    <rect x="632" y="166" width="9" height="2" fill="rgba(150,150,150,0.3)"/>
    <rect x="632" y="172" width="11" height="2" fill="rgba(150,150,150,0.3)"/>

    <!-- ── Splitter bar ── -->
    <rect x="648" y="110" width="4" height="640" fill="#444"/>

    <!-- ══════════════════════════════════════ -->
    <!-- RIGHT: LIVE PREVIEW — Luna form        -->
    <!-- ══════════════════════════════════════ -->
    <rect x="652" y="110" width="548" height="640" fill="#ECEAE4"/>

    <!-- Preview tab bar -->
    <rect x="652" y="110" width="548" height="26" fill="#2D2D2D"/>
    <text x="672" y="127" font-size="10" fill="#888">Design</text>
    <rect x="720" y="110" width="80" height="26" fill="#1E1E1E"/>
    <rect x="720" y="110" width="80" height="1" fill="#0078D4"/>
    <text x="736" y="127" font-size="10" fill="#fff">Preview</text>
    <text x="830" y="127" font-size="10" fill="#888">Diff</text>

    <!-- Preview content starts -->
    <rect x="652" y="136" width="548" height="614" fill="#ECEAE4"/>

    <!-- ── Form Shell — a window within the preview ── -->
    <g transform="translate(672,150)" filter="url(#shSm)">
        <rect width="508" height="574" rx="4" fill="#fff" stroke="#C8C4B8" stroke-width="0.8"/>

        <!-- Form title bar (Luna style) -->
        <linearGradient id="formBar" x1="0" y1="0" x2="0" y2="1" gradientUnits="userSpaceOnUse" gradientTransform="translate(0,0)">
            <stop offset="0%" stop-color="#94B8D8"/>
            <stop offset="40%" stop-color="#6C9CC8"/>
            <stop offset="100%" stop-color="#7CA8D0"/>
        </linearGradient>
        <rect width="508" height="28" rx="4 4 0 0" fill="#7CA8D0"/>
        <rect x="1" y="1" width="506" height="8" fill="rgba(255,255,255,0.12)" rx="3"/>
        <text x="14" y="19" font-size="11" font-weight="600" fill="#fff">📋 Order Form — Preview</text>
        <text x="460" y="19" font-size="9" fill="rgba(255,255,255,0.7)">Live</text>
        <circle cx="490" cy="14" r="4" fill="#4AC84A"/>

        <!-- Form body -->
        <rect x="0" y="28" width="508" height="546" fill="#F8F6F2" rx="0 0 4 4"/>

        <!-- ── Group: Customer ── -->
        <rect x="16" y="44" width="476" height="158" fill="none" stroke="#C4C0B8" rx="3"/>
        <rect x="26" y="38" width="72" height="12" fill="#F8F6F2"/>
        <text x="30" y="48" font-size="10" font-weight="600" fill="#2A4060">Customer</text>

        <!-- Full Name (2-col layout: label + input) -->
        <text x="32" y="72" font-size="10" fill="#444" font-weight="600">Full Name *</text>
        <rect x="32" y="78" width="218" height="24" rx="2" fill="#8098B0"/>
        <rect x="33" y="79" width="216" height="22" rx="1" fill="url(#lunaField)"/>
        <text x="40" y="95" font-size="10" fill="#1A1A1A">John Smith</text>

        <!-- Email -->
        <text x="262" y="72" font-size="10" fill="#444" font-weight="600">Email</text>
        <rect x="262" y="78" width="218" height="24" rx="2" fill="#8098B0"/>
        <rect x="263" y="79" width="216" height="22" rx="1" fill="url(#lunaField)"/>
        <text x="270" y="95" font-size="10" fill="#888">john@company.com</text>

        <!-- Customer Type (combo) -->
        <text x="32" y="120" font-size="10" fill="#444" font-weight="600">Type</text>
        <rect x="32" y="126" width="218" height="24" rx="2" fill="#8098B0"/>
        <rect x="33" y="127" width="196" height="22" rx="1" fill="#fff"/>
        <text x="40" y="143" font-size="10" fill="#1A1A1A">Business</text>
        <rect x="207" y="127" width="22" height="22" rx="0 1 1 0" fill="url(#btn)" stroke="#8098B0" stroke-width="0.5"/>
        <polygon points="213,137 223,137 218,142" fill="#2A4060"/>

        <!-- Phone -->
        <text x="262" y="120" font-size="10" fill="#444" font-weight="600">Phone</text>
        <rect x="262" y="126" width="218" height="24" rx="2" fill="#8098B0"/>
        <rect x="263" y="127" width="216" height="22" rx="1" fill="url(#lunaField)"/>
        <text x="270" y="143" font-size="10" fill="#888">+44 ...</text>

        <!-- Separator -->
        <text x="32" y="178" font-size="10" fill="#444" font-weight="600">Priority</text>
        <!-- Slider -->
        <rect x="92" y="168" width="160" height="6" rx="3" fill="#D4D0C8"/>
        <rect x="92" y="168" width="80" height="6" rx="3" fill="#5090D0"/>
        <circle cx="172" cy="171" r="8" fill="url(#btnPri)" stroke="#2868A0" stroke-width="1"/>
        <text x="268" y="178" font-size="10" fill="#1A1A1A">Medium</text>

        <!-- ── Group: Order Details ── -->
        <rect x="16" y="216" width="476" height="200" fill="none" stroke="#C4C0B8" rx="3"/>
        <rect x="26" y="210" width="90" height="12" fill="#F8F6F2"/>
        <text x="30" y="220" font-size="10" font-weight="600" fill="#2A4060">Order Details</text>

        <!-- Product (combo) -->
        <text x="32" y="244" font-size="10" fill="#444" font-weight="600">Product *</text>
        <rect x="32" y="250" width="340" height="24" rx="2" fill="#8098B0"/>
        <rect x="33" y="251" width="318" height="22" rx="1" fill="#fff"/>
        <text x="40" y="267" font-size="10" fill="#1A1A1A">jsgui3-html Enterprise License</text>
        <rect x="329" y="251" width="22" height="22" rx="0 1 1 0" fill="url(#btn)" stroke="#8098B0" stroke-width="0.5"/>
        <polygon points="335,261 345,261 340,266" fill="#2A4060"/>

        <!-- Quantity (stepper) -->
        <text x="384" y="244" font-size="10" fill="#444" font-weight="600">Qty</text>
        <rect x="384" y="250" width="96" height="24" rx="2" fill="#8098B0"/>
        <rect x="385" y="251" width="72" height="22" rx="1" fill="#fff"/>
        <text x="418" y="267" font-size="10" fill="#1A1A1A" text-anchor="middle">5</text>
        <rect x="457" y="251" width="22" height="11" rx="0 1 0 0" fill="url(#btn)" stroke="#8098B0" stroke-width="0.5"/>
        <text x="468" y="260" text-anchor="middle" font-size="8" fill="#2A3A50">▲</text>
        <rect x="457" y="262" width="22" height="11" rx="0 0 1 0" fill="url(#btn)" stroke="#8098B0" stroke-width="0.5"/>
        <text x="468" y="271" text-anchor="middle" font-size="8" fill="#2A3A50">▼</text>

        <!-- Notes -->
        <text x="32" y="292" font-size="10" fill="#444" font-weight="600">Notes</text>
        <rect x="32" y="298" width="448" height="56" rx="2" fill="#8098B0"/>
        <rect x="33" y="299" width="446" height="54" rx="1" fill="url(#lunaField)"/>
        <text x="40" y="318" font-size="10" fill="#888">Special delivery instructions...</text>

        <!-- Checkboxes -->
        <rect x="32" y="366" width="14" height="14" rx="2" fill="#8098B0"/>
        <rect x="33" y="367" width="12" height="12" rx="1" fill="#fff"/>
        <polyline points="35.5,373.5 38,376.5 43,370.5" fill="none" stroke="#2868A0" stroke-width="2" stroke-linecap="round"/>
        <text x="52" y="377" font-size="10" fill="#1A1A1A">Express delivery (+£15)</text>

        <rect x="32" y="390" width="14" height="14" rx="2" fill="#8098B0"/>
        <rect x="33" y="391" width="12" height="12" rx="1" fill="#fff"/>
        <text x="52" y="401" font-size="10" fill="#1A1A1A">Gift wrapping</text>

        <!-- ── Summary row ── -->
        <line x1="16" y1="426" x2="492" y2="426" stroke="#D4D0C8"/>
        <text x="32" y="446" font-size="10" fill="#666">Subtotal:</text>
        <text x="440" y="446" font-size="10" fill="#1A1A1A" text-anchor="end">£475.00</text>
        <text x="32" y="464" font-size="10" fill="#666">Tax (20%):</text>
        <text x="440" y="464" font-size="10" fill="#1A1A1A" text-anchor="end">£95.00</text>
        <text x="32" y="484" font-size="10" fill="#666">Delivery:</text>
        <text x="440" y="484" font-size="10" fill="#1A1A1A" text-anchor="end">£15.00</text>
        <line x1="350" y1="490" x2="450" y2="490" stroke="#D4D0C8"/>
        <text x="32" y="508" font-size="12" font-weight="600" fill="#2A4060">Total:</text>
        <text x="440" y="508" font-size="12" font-weight="600" fill="#2A4060" text-anchor="end">£585.00</text>

        <!-- ── Form buttons ── -->
        <g transform="translate(260,526)">
            <rect width="100" height="28" rx="3" fill="url(#btnOk)" stroke="#2A8028" stroke-width="1"/>
            <text x="50" y="18" text-anchor="middle" font-size="11" font-weight="600" fill="#fff">Place Order</text>
        </g>
        <g transform="translate(368,526)">
            <rect width="80" height="28" rx="3" fill="url(#btn)" stroke="#8698AA" stroke-width="1"/>
            <text x="40" y="18" text-anchor="middle" font-size="11" fill="#2A3A50">Cancel</text>
        </g>
        <g transform="translate(456,526)">
            <rect width="28" height="28" rx="3" fill="url(#btn)" stroke="#8698AA" stroke-width="1"/>
            <text x="14" y="18" text-anchor="middle" font-size="11" fill="#2A3A50">🖨</text>
        </g>
    </g>

    <!-- ── VS Code Status Bar ── -->
    <rect x="0" y="794" width="1200" height="26" fill="#007ACC"/>
    <text x="12" y="811" font-size="10" fill="#fff">↗ main</text>
    <text x="80" y="811" font-size="10" fill="rgba(255,255,255,0.8)">⟳ 0</text>
    <text x="120" y="811" font-size="10" fill="rgba(255,255,255,0.8)">⚠ 0</text>
    <text x="160" y="811" font-size="10" fill="rgba(255,255,255,0.8)">✕ 0</text>
    <text x="700" y="811" font-size="10" fill="rgba(255,255,255,0.8)" text-anchor="middle">JSON + Preview — Synced</text>
    <text x="1050" y="811" font-size="10" fill="rgba(255,255,255,0.8)" text-anchor="end">Split View</text>
    <text x="1120" y="811" font-size="10" fill="rgba(255,255,255,0.8)" text-anchor="end">Ln 12, Col 24</text>
    <text x="1190" y="811" font-size="10" fill="rgba(255,255,255,0.8)" text-anchor="end">UTF-8</text>
</svg>
