<svg xmlns="http://www.w3.org/2000/svg" viewBox="0 0 800 700">
  <defs>
    <!-- Classic Win32/VS raised button gradient -->
    <linearGradient id="raisedFace" x1="0%" y1="0%" x2="0%" y2="100%">
      <stop offset="0%" style="stop-color:#F0F0F0"/>
      <stop offset="100%" style="stop-color:#D4D0C8"/>
    </linearGradient>
    <linearGradient id="pressedFace" x1="0%" y1="0%" x2="0%" y2="100%">
      <stop offset="0%" style="stop-color:#D4D0C8"/>
      <stop offset="100%" style="stop-color:#E8E4DC"/>
    </linearGradient>
    <!-- Classic blue title bar gradient (VS 2003/XP era) -->
    <linearGradient id="titleBarGradient" x1="0%" y1="0%" x2="100%" y2="0%">
      <stop offset="0%" style="stop-color:#0A246A"/>
      <stop offset="100%" style="stop-color:#3A6EA5"/>
    </linearGradient>
    <!-- Inactive title bar -->
    <linearGradient id="inactiveTitleBar" x1="0%" y1="0%" x2="100%" y2="0%">
      <stop offset="0%" style="stop-color:#7A96DF"/>
      <stop offset="100%" style="stop-color:#A6CAF0"/>
    </linearGradient>
    <!-- Focus ring -->
    <filter id="focusDots">
      <feMorphology operator="dilate" radius="0.5" in="SourceAlpha" result="dilated"/>
      <feComposite in="SourceGraphic" in2="dilated" operator="over"/>
    </filter>
  </defs>

  <!-- Background: Classic Windows silver/gray desktop -->
  <rect width="800" height="700" fill="#ECE9D8"/>
  <!-- Subtle texture -->
  <pattern id="winTexture" patternUnits="userSpaceOnUse" width="2" height="2">
    <rect width="1" height="1" fill="#E8E4DC"/>
    <rect x="1" y="1" width="1" height="1" fill="#E8E4DC"/>
  </pattern>
  <rect width="800" height="700" fill="url(#winTexture)" opacity="0.3"/>

  <!-- Title -->
  <text x="30" y="40" font-family="Tahoma, 'Segoe UI', sans-serif" font-size="20" font-weight="bold" fill="#1E3A5F">Classic Visual Studio Button Designs</text>
  <text x="30" y="60" font-family="Tahoma, 'Segoe UI', sans-serif" font-size="12" fill="#666">Skeuomorphic beveled controls — Win32 / Visual Studio 6 / VS 2003 era</text>

  <!-- ═══════════════════════════════════════ -->
  <!-- Row 1: Standard 3D Raised Buttons -->
  <!-- ═══════════════════════════════════════ -->
  <text x="30" y="100" font-family="Tahoma, sans-serif" font-size="11" font-weight="bold" fill="#333" letter-spacing="0.5">STANDARD 3D BUTTONS</text>

  <!-- Button: Normal state -->
  <g transform="translate(30, 115)">
    <!-- Outer shadow (dark bottom/right) -->
    <rect width="88" height="28" fill="#404040"/>
    <!-- Inner highlight (white top/left) -->
    <rect x="0" y="0" width="87" height="27" fill="#FFFFFF"/>
    <!-- Inner shadow (dark gray bottom/right) -->
    <rect x="1" y="1" width="87" height="27" fill="#808080"/>
    <!-- Inner highlight 2 -->
    <rect x="1" y="1" width="86" height="26" fill="#F0F0F0"/>
    <!-- Face -->
    <rect x="2" y="2" width="84" height="24" fill="url(#raisedFace)"/>
    <text x="44" y="18" font-family="Tahoma, sans-serif" font-size="11" fill="#000" text-anchor="middle">OK</text>
  </g>
  <text x="30" y="157" font-family="Tahoma, sans-serif" font-size="9" fill="#888">Normal</text>

  <!-- Button: Hover state -->
  <g transform="translate(140, 115)">
    <rect width="88" height="28" fill="#404040"/>
    <rect x="0" y="0" width="87" height="27" fill="#FFFFFF"/>
    <rect x="1" y="1" width="87" height="27" fill="#808080"/>
    <rect x="1" y="1" width="86" height="26" fill="#F8F8F0"/>
    <rect x="2" y="2" width="84" height="24" fill="#F0EDE0"/>
    <text x="44" y="18" font-family="Tahoma, sans-serif" font-size="11" fill="#000" text-anchor="middle">Cancel</text>
  </g>
  <text x="140" y="157" font-family="Tahoma, sans-serif" font-size="9" fill="#888">Hover</text>

  <!-- Button: Pressed state -->
  <g transform="translate(250, 115)">
    <rect width="88" height="28" fill="#808080"/>
    <rect x="1" y="1" width="87" height="27" fill="#FFFFFF"/>
    <rect x="1" y="1" width="86" height="26" fill="#808080"/>
    <rect x="2" y="2" width="85" height="25" fill="url(#pressedFace)"/>
    <text x="45" y="19" font-family="Tahoma, sans-serif" font-size="11" fill="#000" text-anchor="middle">Apply</text>
  </g>
  <text x="250" y="157" font-family="Tahoma, sans-serif" font-size="9" fill="#888">Pressed</text>

  <!-- Button: Disabled state -->
  <g transform="translate(360, 115)">
    <rect width="88" height="28" fill="#404040"/>
    <rect x="0" y="0" width="87" height="27" fill="#FFFFFF"/>
    <rect x="1" y="1" width="87" height="27" fill="#808080"/>
    <rect x="1" y="1" width="86" height="26" fill="#F0F0F0"/>
    <rect x="2" y="2" width="84" height="24" fill="#D4D0C8"/>
    <text x="45" y="19" font-family="Tahoma, sans-serif" font-size="11" fill="#FFFFFF" text-anchor="middle">Help</text>
    <text x="44" y="18" font-family="Tahoma, sans-serif" font-size="11" fill="#A0A0A0" text-anchor="middle">Help</text>
  </g>
  <text x="360" y="157" font-family="Tahoma, sans-serif" font-size="9" fill="#888">Disabled</text>

  <!-- Button: Default/focused state (with bold border) -->
  <g transform="translate(470, 115)">
    <rect x="-1" y="-1" width="90" height="30" fill="#000000"/>
    <rect width="88" height="28" fill="#404040"/>
    <rect x="0" y="0" width="87" height="27" fill="#FFFFFF"/>
    <rect x="1" y="1" width="87" height="27" fill="#808080"/>
    <rect x="1" y="1" width="86" height="26" fill="#F0F0F0"/>
    <rect x="2" y="2" width="84" height="24" fill="url(#raisedFace)"/>
    <text x="44" y="18" font-family="Tahoma, sans-serif" font-size="11" fill="#000" text-anchor="middle">OK</text>
    <!-- Focus dotted rect -->
    <rect x="5" y="5" width="78" height="18" fill="none" stroke="#000" stroke-width="1" stroke-dasharray="1,1"/>
  </g>
  <text x="470" y="157" font-family="Tahoma, sans-serif" font-size="9" fill="#888">Default (Focused)</text>

  <!-- ═══════════════════════════════════════ -->
  <!-- Row 2: Flat toolbar buttons (VS 2003 style) -->
  <!-- ═══════════════════════════════════════ -->
  <text x="30" y="195" font-family="Tahoma, sans-serif" font-size="11" font-weight="bold" fill="#333" letter-spacing="0.5">FLAT TOOLBAR BUTTONS (VS 2003 STYLE)</text>

  <!-- Toolbar background -->
  <rect x="25" y="210" width="550" height="36" fill="#E8E4DC"/>
  <rect x="25" y="210" width="550" height="1" fill="#FFFFFF"/>
  <rect x="25" y="245" width="550" height="1" fill="#A0A0A0"/>

  <!-- Toolbar button: Normal (flat) -->
  <g transform="translate(30, 214)">
    <rect width="28" height="28" fill="transparent"/>
    <!-- New doc icon (simplified) -->
    <rect x="7" y="4" width="14" height="18" fill="#FFFFFF" stroke="#000080" stroke-width="1"/>
    <rect x="7" y="4" width="9" height="4" fill="#E0E0FF"/>
    <line x1="10" y1="10" x2="18" y2="10" stroke="#000080" stroke-width="0.5"/>
    <line x1="10" y1="13" x2="18" y2="13" stroke="#000080" stroke-width="0.5"/>
    <line x1="10" y1="16" x2="16" y2="16" stroke="#000080" stroke-width="0.5"/>
  </g>

  <!-- Toolbar button: Hover (raised) -->
  <g transform="translate(62, 214)">
    <rect width="28" height="28" fill="#FFFFFF"/>
    <rect x="0" y="0" width="27" height="27" fill="#D4D0C8"/>
    <rect x="0" y="0" width="28" height="1" fill="#FFFFFF"/>
    <rect x="0" y="0" width="1" height="28" fill="#FFFFFF"/>
    <rect x="27" y="0" width="1" height="28" fill="#808080"/>
    <rect x="0" y="27" width="28" height="1" fill="#808080"/>
    <!-- Folder icon -->
    <path d="M6 9 L6 22 L22 22 L22 12 L14 12 L12 9 Z" fill="#FFD700" stroke="#996600" stroke-width="0.5"/>
    <rect x="6" y="14" width="16" height="8" fill="#FFEB3B" rx="0"/>
  </g>
  <text x="62" y="256" font-family="Tahoma, sans-serif" font-size="8" fill="#888">Hover</text>

  <!-- Toolbar button: Pressed -->
  <g transform="translate(94, 214)">
    <rect width="28" height="28" fill="#D4D0C8"/>
    <rect x="0" y="0" width="28" height="1" fill="#808080"/>
    <rect x="0" y="0" width="1" height="28" fill="#808080"/>
    <rect x="27" y="0" width="1" height="28" fill="#FFFFFF"/>
    <rect x="0" y="27" width="28" height="1" fill="#FFFFFF"/>
    <!-- Save icon -->
    <rect x="7" y="5" width="14" height="16" fill="#3B4CCA" rx="1"/>
    <rect x="10" y="5" width="8" height="6" fill="#F0F0F0"/>
    <rect x="9" y="14" width="10" height="7" fill="#F8F8F8"/>
    <rect x="15" y="6" width="2" height="4" fill="#3B4CCA"/>
  </g>

  <!-- Toolbar separator -->
  <g transform="translate(128, 214)">
    <rect x="3" y="2" width="1" height="24" fill="#808080"/>
    <rect x="4" y="2" width="1" height="24" fill="#FFFFFF"/>
  </g>

  <!-- Toolbar button: Cut -->
  <g transform="translate(138, 214)">
    <rect width="28" height="28" fill="transparent"/>
    <!-- Scissors icon -->
    <path d="M10 6 L14 14 L18 6" fill="none" stroke="#666" stroke-width="1.5"/>
    <circle cx="9" cy="20" r="3" fill="none" stroke="#666" stroke-width="1"/>
    <circle cx="19" cy="20" r="3" fill="none" stroke="#666" stroke-width="1"/>
    <line x1="14" y1="14" x2="9" y2="18" stroke="#666" stroke-width="1"/>
    <line x1="14" y1="14" x2="19" y2="18" stroke="#666" stroke-width="1"/>
  </g>

  <!-- Toolbar button: Copy -->
  <g transform="translate(170, 214)">
    <rect width="28" height="28" fill="transparent"/>
    <rect x="6" y="8" width="11" height="14" fill="#FFFFFF" stroke="#000080" stroke-width="0.8"/>
    <rect x="10" y="4" width="11" height="14" fill="#FFFFFF" stroke="#000080" stroke-width="0.8"/>
    <line x1="12" y1="9" x2="19" y2="9" stroke="#000080" stroke-width="0.4"/>
    <line x1="12" y1="12" x2="19" y2="12" stroke="#000080" stroke-width="0.4"/>
  </g>

  <!-- Toolbar button: Paste -->
  <g transform="translate(202, 214)">
    <rect width="28" height="28" fill="transparent"/>
    <rect x="8" y="7" width="13" height="16" fill="#FFFDE7" stroke="#996600" stroke-width="0.8"/>
    <rect x="10" y="3" width="8" height="6" fill="#C0A060" stroke="#996600" stroke-width="0.5" rx="1"/>
    <line x1="11" y1="12" x2="18" y2="12" stroke="#333" stroke-width="0.4"/>
    <line x1="11" y1="15" x2="18" y2="15" stroke="#333" stroke-width="0.4"/>
    <line x1="11" y1="18" x2="16" y2="18" stroke="#333" stroke-width="0.4"/>
  </g>

  <!-- Toolbar separator -->
  <g transform="translate(236, 214)">
    <rect x="3" y="2" width="1" height="24" fill="#808080"/>
    <rect x="4" y="2" width="1" height="24" fill="#FFFFFF"/>
  </g>

  <!-- Toolbar button: Undo -->
  <g transform="translate(246, 214)">
    <rect width="28" height="28" fill="transparent"/>
    <path d="M10 14 C10 8 20 8 20 14 C20 18 16 19 14 18" fill="none" stroke="#000080" stroke-width="1.5"/>
    <path d="M7 14 L11 10 L11 18 Z" fill="#000080"/>
  </g>

  <!-- ═══════════════════════════════════════ -->
  <!-- Row 3: VS-style grouped buttons (Build/Debug) -->
  <!-- ═══════════════════════════════════════ -->
  <text x="30" y="295" font-family="Tahoma, sans-serif" font-size="11" font-weight="bold" fill="#333" letter-spacing="0.5">VS-STYLE ACTION BUTTONS</text>

  <!-- Build button with icon -->
  <g transform="translate(30, 310)">
    <rect width="100" height="26" fill="#404040"/>
    <rect x="0" y="0" width="99" height="25" fill="#FFFFFF"/>
    <rect x="1" y="1" width="99" height="25" fill="#808080"/>
    <rect x="1" y="1" width="98" height="24" fill="#F0F0F0"/>
    <rect x="2" y="2" width="96" height="22" fill="url(#raisedFace)"/>
    <!-- Play triangle -->
    <path d="M10 7 L10 19 L20 13 Z" fill="#008000"/>
    <text x="55" y="17" font-family="Tahoma, sans-serif" font-size="11" fill="#000" text-anchor="middle">▶ Start</text>
  </g>

  <!-- Build with dropdown -->
  <g transform="translate(140, 310)">
    <rect width="120" height="26" fill="#404040"/>
    <rect x="0" y="0" width="119" height="25" fill="#FFFFFF"/>
    <rect x="1" y="1" width="119" height="25" fill="#808080"/>
    <rect x="1" y="1" width="118" height="24" fill="#F0F0F0"/>
    <rect x="2" y="2" width="116" height="22" fill="url(#raisedFace)"/>
    <text x="50" y="17" font-family="Tahoma, sans-serif" font-size="11" fill="#000" text-anchor="middle">Build Solution</text>
    <!-- Dropdown separator -->
    <rect x="102" y="3" width="1" height="20" fill="#808080"/>
    <rect x="103" y="3" width="1" height="20" fill="#FFFFFF"/>
    <!-- Dropdown arrow -->
    <path d="M109 11 L113 15 L117 11" fill="none" stroke="#000" stroke-width="1"/>
  </g>

  <!-- Stop button -->
  <g transform="translate(270, 310)">
    <rect width="80" height="26" fill="#404040"/>
    <rect x="0" y="0" width="79" height="25" fill="#FFFFFF"/>
    <rect x="1" y="1" width="79" height="25" fill="#808080"/>
    <rect x="1" y="1" width="78" height="24" fill="#F0F0F0"/>
    <rect x="2" y="2" width="76" height="22" fill="url(#raisedFace)"/>
    <!-- Stop square -->
    <rect x="10" y="7" width="12" height="12" fill="#CC0000"/>
    <text x="50" y="17" font-family="Tahoma, sans-serif" font-size="11" fill="#000" text-anchor="middle">■ Stop</text>
  </g>

  <!-- Breakpoint toggle -->
  <g transform="translate(360, 310)">
    <rect width="120" height="26" fill="#404040"/>
    <rect x="0" y="0" width="119" height="25" fill="#FFFFFF"/>
    <rect x="1" y="1" width="119" height="25" fill="#808080"/>
    <rect x="1" y="1" width="118" height="24" fill="#F0F0F0"/>
    <rect x="2" y="2" width="116" height="22" fill="url(#raisedFace)"/>
    <circle cx="14" cy="13" r="5" fill="#CC0000"/>
    <text x="68" y="17" font-family="Tahoma, sans-serif" font-size="11" fill="#000" text-anchor="middle">Breakpoint</text>
  </g>

  <!-- ═══════════════════════════════════════ -->
  <!-- Row 4: Classic Input Controls -->
  <!-- ═══════════════════════════════════════ -->
  <text x="30" y="370" font-family="Tahoma, sans-serif" font-size="11" font-weight="bold" fill="#333" letter-spacing="0.5">CLASSIC INPUT CONTROLS</text>

  <!-- Text input (sunken) -->
  <g transform="translate(30, 385)">
    <text x="0" y="-4" font-family="Tahoma, sans-serif" font-size="11" fill="#333">Name:</text>
    <!-- Sunken border (dark top-left, light bottom-right) -->
    <rect x="0" y="0" width="180" height="22" fill="#FFFFFF"/>
    <rect x="0" y="0" width="180" height="1" fill="#808080"/>
    <rect x="0" y="0" width="1" height="22" fill="#808080"/>
    <rect x="1" y="1" width="178" height="1" fill="#404040"/>
    <rect x="1" y="1" width="1" height="20" fill="#404040"/>
    <rect x="179" y="0" width="1" height="22" fill="#F0F0F0"/>
    <rect x="0" y="21" width="180" height="1" fill="#F0F0F0"/>
    <text x="5" y="15" font-family="Tahoma, sans-serif" font-size="11" fill="#000">Hello World</text>
  </g>

  <!-- Combobox / Dropdown -->
  <g transform="translate(240, 385)">
    <text x="0" y="-4" font-family="Tahoma, sans-serif" font-size="11" fill="#333">Solution Configuration:</text>
    <rect x="0" y="0" width="160" height="22" fill="#FFFFFF"/>
    <rect x="0" y="0" width="160" height="1" fill="#808080"/>
    <rect x="0" y="0" width="1" height="22" fill="#808080"/>
    <rect x="1" y="1" width="158" height="1" fill="#404040"/>
    <rect x="1" y="1" width="1" height="20" fill="#404040"/>
    <rect x="159" y="0" width="1" height="22" fill="#F0F0F0"/>
    <rect x="0" y="21" width="160" height="1" fill="#F0F0F0"/>
    <text x="5" y="15" font-family="Tahoma, sans-serif" font-size="11" fill="#000">Debug</text>
    <!-- Dropdown button -->
    <rect x="140" y="1" width="18" height="20" fill="url(#raisedFace)"/>
    <rect x="140" y="1" width="18" height="1" fill="#FFFFFF"/>
    <rect x="140" y="1" width="1" height="20" fill="#FFFFFF"/>
    <rect x="157" y="1" width="1" height="20" fill="#808080"/>
    <rect x="140" y="20" width="18" height="1" fill="#808080"/>
    <path d="M146 9 L149 13 L152 9" fill="#000"/>
  </g>

  <!-- Checkbox -->
  <g transform="translate(440, 385)">
    <!-- Checked checkbox -->
    <rect x="0" y="0" width="14" height="14" fill="#FFFFFF"/>
    <rect x="0" y="0" width="14" height="1" fill="#808080"/>
    <rect x="0" y="0" width="1" height="14" fill="#808080"/>
    <rect x="1" y="1" width="12" height="1" fill="#404040"/>
    <rect x="1" y="1" width="1" height="12" fill="#404040"/>
    <rect x="13" y="0" width="1" height="14" fill="#F0F0F0"/>
    <rect x="0" y="13" width="14" height="1" fill="#F0F0F0"/>
    <!-- Checkmark -->
    <path d="M3 7 L6 10 L11 4" fill="none" stroke="#000" stroke-width="1.5"/>
    <text x="20" y="12" font-family="Tahoma, sans-serif" font-size="11" fill="#333">Enable Debugging</text>
  </g>

  <!-- Unchecked checkbox -->
  <g transform="translate(440, 408)">
    <rect x="0" y="0" width="14" height="14" fill="#FFFFFF"/>
    <rect x="0" y="0" width="14" height="1" fill="#808080"/>
    <rect x="0" y="0" width="1" height="14" fill="#808080"/>
    <rect x="1" y="1" width="12" height="1" fill="#404040"/>
    <rect x="1" y="1" width="1" height="12" fill="#404040"/>
    <rect x="13" y="0" width="1" height="14" fill="#F0F0F0"/>
    <rect x="0" y="13" width="14" height="1" fill="#F0F0F0"/>
    <text x="20" y="12" font-family="Tahoma, sans-serif" font-size="11" fill="#333">Start Minimized</text>
  </g>

  <!-- Radio buttons -->
  <g transform="translate(620, 385)">
    <!-- Selected radio -->
    <circle cx="7" cy="7" r="7" fill="#FFFFFF" stroke="#808080" stroke-width="1"/>
    <circle cx="7" cy="7" r="6" stroke="#404040" stroke-width="0.5" fill="#FFFFFF"/>
    <circle cx="7" cy="7" r="3" fill="#000"/>
    <text x="20" y="11" font-family="Tahoma, sans-serif" font-size="11" fill="#333">Debug</text>
    <!-- Unselected radio -->
    <circle cx="7" cy="27" r="7" fill="#FFFFFF" stroke="#808080" stroke-width="1"/>
    <circle cx="7" cy="27" r="6" stroke="#404040" stroke-width="0.5" fill="#FFFFFF"/>
    <text x="20" y="31" font-family="Tahoma, sans-serif" font-size="11" fill="#333">Release</text>
  </g>

  <!-- ═══════════════════════════════════════ -->
  <!-- Row 5: Group Box and Tabs -->
  <!-- ═══════════════════════════════════════ -->
  <text x="30" y="460" font-family="Tahoma, sans-serif" font-size="11" font-weight="bold" fill="#333" letter-spacing="0.5">GROUP BOXES &amp; TAB CONTROLS</text>

  <!-- Group Box (sunken etched border) -->
  <g transform="translate(30, 475)">
    <!-- Etched border: outer light, inner dark -->
    <rect x="0" y="8" width="220" height="90" fill="none" stroke="#FFFFFF" stroke-width="1"/>
    <rect x="1" y="9" width="218" height="88" fill="none" stroke="#808080" stroke-width="1"/>
    <!-- Label background patch -->
    <rect x="10" y="2" width="75" height="14" fill="#ECE9D8"/>
    <text x="14" y="13" font-family="Tahoma, sans-serif" font-size="11" fill="#333">Output Type</text>
    <!-- Content inside group box -->
    <circle cx="20" cy="38" r="6" fill="#FFFFFF" stroke="#808080" stroke-width="1"/>
    <circle cx="20" cy="38" r="3" fill="#000"/>
    <text x="32" y="42" font-family="Tahoma, sans-serif" font-size="11" fill="#333">Windows Application</text>
    <circle cx="20" cy="60" r="6" fill="#FFFFFF" stroke="#808080" stroke-width="1"/>
    <text x="32" y="64" font-family="Tahoma, sans-serif" font-size="11" fill="#333">Console Application</text>
    <circle cx="20" cy="82" r="6" fill="#FFFFFF" stroke="#808080" stroke-width="1"/>
    <text x="32" y="86" font-family="Tahoma, sans-serif" font-size="11" fill="#333">Class Library</text>
  </g>

  <!-- Tab Control -->
  <g transform="translate(280, 475)">
    <!-- Tab body -->
    <rect x="0" y="22" width="300" height="76" fill="#ECE9D8"/>
    <rect x="0" y="22" width="300" height="1" fill="#FFFFFF"/>
    <rect x="0" y="22" width="1" height="76" fill="#FFFFFF"/>
    <rect x="299" y="22" width="1" height="76" fill="#404040"/>
    <rect x="0" y="97" width="300" height="1" fill="#404040"/>
    <rect x="298" y="23" width="1" height="75" fill="#808080"/>
    <rect x="1" y="96" width="299" height="1" fill="#808080"/>

    <!-- Active tab -->
    <rect x="2" y="4" width="70" height="20" fill="#ECE9D8"/>
    <rect x="2" y="4" width="70" height="1" fill="#FFFFFF"/>
    <rect x="2" y="4" width="1" height="18" fill="#FFFFFF"/>
    <rect x="71" y="4" width="1" height="18" fill="#808080"/>
    <rect x="72" y="5" width="1" height="17" fill="#404040"/>
    <rect x="3" y="22" width="68" height="1" fill="#ECE9D8"/>
    <text x="37" y="18" font-family="Tahoma, sans-serif" font-size="11" fill="#333" text-anchor="middle">General</text>

    <!-- Inactive tab -->
    <rect x="74" y="6" width="60" height="17" fill="#D4D0C8"/>
    <rect x="74" y="6" width="60" height="1" fill="#FFFFFF"/>
    <rect x="74" y="6" width="1" height="17" fill="#FFFFFF"/>
    <rect x="133" y="6" width="1" height="17" fill="#808080"/>
    <rect x="134" y="7" width="1" height="16" fill="#404040"/>
    <text x="104" y="18" font-family="Tahoma, sans-serif" font-size="11" fill="#333" text-anchor="middle">Build</text>

    <!-- Inactive tab 2 -->
    <rect x="136" y="6" width="65" height="17" fill="#D4D0C8"/>
    <rect x="136" y="6" width="65" height="1" fill="#FFFFFF"/>
    <rect x="136" y="6" width="1" height="17" fill="#FFFFFF"/>
    <rect x="200" y="6" width="1" height="17" fill="#808080"/>
    <rect x="201" y="7" width="1" height="16" fill="#404040"/>
    <text x="168" y="18" font-family="Tahoma, sans-serif" font-size="11" fill="#333" text-anchor="middle">Debug</text>

    <!-- Content label inside tab -->
    <text x="15" y="48" font-family="Tahoma, sans-serif" font-size="11" fill="#333">Assembly Name:</text>
    <rect x="15" y="55" width="200" height="20" fill="#FFFFFF"/>
    <rect x="15" y="55" width="200" height="1" fill="#808080"/>
    <rect x="15" y="55" width="1" height="20" fill="#808080"/>
    <text x="20" y="69" font-family="Tahoma, sans-serif" font-size="11" fill="#000">MyApplication</text>
  </g>

  <!-- ═══════════════════════════════════════ -->
  <!-- Row 6: Scrollbar and Progress Bar -->
  <!-- ═══════════════════════════════════════ -->
  <text x="30" y="600" font-family="Tahoma, sans-serif" font-size="11" font-weight="bold" fill="#333" letter-spacing="0.5">SCROLLBARS &amp; PROGRESS</text>

  <!-- Horizontal scrollbar -->
  <g transform="translate(30, 615)">
    <!-- Track -->
    <rect x="0" y="0" width="250" height="17" fill="#E8E4DC"/>
    <rect x="0" y="0" width="250" height="1" fill="#808080"/>
    <rect x="0" y="16" width="250" height="1" fill="#FFFFFF"/>
    <!-- Left arrow button -->
    <rect x="0" y="0" width="17" height="17" fill="url(#raisedFace)"/>
    <rect x="0" y="0" width="17" height="1" fill="#FFFFFF"/>
    <rect x="0" y="0" width="1" height="17" fill="#FFFFFF"/>
    <rect x="16" y="0" width="1" height="17" fill="#808080"/>
    <rect x="0" y="16" width="17" height="1" fill="#808080"/>
    <path d="M11 5 L6 8 L11 11" fill="#000"/>
    <!-- Right arrow button -->
    <rect x="233" y="0" width="17" height="17" fill="url(#raisedFace)"/>
    <rect x="233" y="0" width="17" height="1" fill="#FFFFFF"/>
    <rect x="233" y="0" width="1" height="17" fill="#FFFFFF"/>
    <rect x="249" y="0" width="1" height="17" fill="#808080"/>
    <rect x="233" y="16" width="17" height="1" fill="#808080"/>
    <path d="M239 5 L244 8 L239 11" fill="#000"/>
    <!-- Thumb -->
    <rect x="40" y="1" width="60" height="15" fill="url(#raisedFace)"/>
    <rect x="40" y="1" width="60" height="1" fill="#FFFFFF"/>
    <rect x="40" y="1" width="1" height="15" fill="#FFFFFF"/>
    <rect x="99" y="1" width="1" height="15" fill="#808080"/>
    <rect x="40" y="15" width="60" height="1" fill="#808080"/>
  </g>

  <!-- Progress bar -->
  <g transform="translate(30, 650)">
    <text x="0" y="-4" font-family="Tahoma, sans-serif" font-size="11" fill="#333">Build Progress:</text>
    <!-- Sunken track -->
    <rect x="0" y="0" width="250" height="18" fill="#FFFFFF"/>
    <rect x="0" y="0" width="250" height="1" fill="#808080"/>
    <rect x="0" y="0" width="1" height="18" fill="#808080"/>
    <rect x="249" y="0" width="1" height="18" fill="#F0F0F0"/>
    <rect x="0" y="17" width="250" height="1" fill="#F0F0F0"/>
    <!-- Classic chunky green progress blocks -->
    <rect x="2" y="2" width="14" height="14" fill="#00A000"/>
    <rect x="18" y="2" width="14" height="14" fill="#00A000"/>
    <rect x="34" y="2" width="14" height="14" fill="#00A000"/>
    <rect x="50" y="2" width="14" height="14" fill="#00A000"/>
    <rect x="66" y="2" width="14" height="14" fill="#00A000"/>
    <rect x="82" y="2" width="14" height="14" fill="#00A000"/>
    <rect x="98" y="2" width="14" height="14" fill="#00A000"/>
    <rect x="114" y="2" width="14" height="14" fill="#00A000"/>
    <rect x="130" y="2" width="14" height="14" fill="#00A000"/>
    <rect x="146" y="2" width="14" height="14" fill="#00A000"/>
    <rect x="162" y="2" width="14" height="14" fill="#00A000"/>
  </g>

  <!-- Status bar -->
  <g transform="translate(30, 685)">
    <rect x="-5" y="-2" width="765" height="17" fill="#ECE9D8"/>
    <rect x="-5" y="-2" width="765" height="1" fill="#808080"/>
    <!-- Sunken status sections -->
    <rect x="0" y="0" width="300" height="13" fill="none"/>
    <rect x="0" y="0" width="300" height="1" fill="#808080"/>
    <rect x="0" y="0" width="1" height="13" fill="#808080"/>
    <rect x="299" y="0" width="1" height="13" fill="#FFFFFF"/>
    <rect x="0" y="12" width="300" height="1" fill="#FFFFFF"/>
    <text x="5" y="10" font-family="Tahoma, sans-serif" font-size="10" fill="#333">Ready</text>

    <rect x="310" y="0" width="100" height="13" fill="none"/>
    <rect x="310" y="0" width="100" height="1" fill="#808080"/>
    <rect x="310" y="0" width="1" height="13" fill="#808080"/>
    <rect x="409" y="0" width="1" height="13" fill="#FFFFFF"/>
    <rect x="310" y="12" width="100" height="1" fill="#FFFFFF"/>
    <text x="315" y="10" font-family="Tahoma, sans-serif" font-size="10" fill="#333">Ln 42, Col 15</text>
  </g>

  <!-- Annotations panel -->
  <g transform="translate(600, 100)">
    <rect width="180" height="220" rx="0" fill="#FFFFCC" stroke="#C0C060" stroke-width="1"/>
    <text x="10" y="20" font-family="Tahoma, sans-serif" font-size="11" font-weight="bold" fill="#333">Design Notes</text>
    <line x1="5" y1="25" x2="175" y2="25" stroke="#C0C060"/>
    <text x="10" y="42" font-family="Tahoma, sans-serif" font-size="9" fill="#555">• 3D beveled borders</text>
    <text x="10" y="56" font-family="Tahoma, sans-serif" font-size="9" fill="#555">• White highlight top/left</text>
    <text x="10" y="70" font-family="Tahoma, sans-serif" font-size="9" fill="#555">• Dark shadow bottom/right</text>
    <text x="10" y="84" font-family="Tahoma, sans-serif" font-size="9" fill="#555">• Tahoma/MS Sans Serif font</text>
    <text x="10" y="98" font-family="Tahoma, sans-serif" font-size="9" fill="#555">• No border-radius (sharp)</text>
    <text x="10" y="112" font-family="Tahoma, sans-serif" font-size="9" fill="#555">• Sunken inputs, raised buttons</text>
    <text x="10" y="126" font-family="Tahoma, sans-serif" font-size="9" fill="#555">• Etched group box borders</text>
    <text x="10" y="140" font-family="Tahoma, sans-serif" font-size="9" fill="#555">• Classic dotted focus rect</text>
    <text x="10" y="154" font-family="Tahoma, sans-serif" font-size="9" fill="#555">• Chunky progress blocks</text>
    <text x="10" y="168" font-family="Tahoma, sans-serif" font-size="9" fill="#555">• System colors: ButtonFace,</text>
    <text x="10" y="180" font-family="Tahoma, sans-serif" font-size="9" fill="#555">  ButtonHighlight, 3DShadow</text>
    <text x="10" y="198" font-family="Tahoma, sans-serif" font-size="9" fill="#993300">These translate to jsgui3</text>
    <text x="10" y="210" font-family="Tahoma, sans-serif" font-size="9" fill="#993300">theme tokens and variants.</text>
  </g>
</svg>
